<mxfile host="app.diagrams.net" agent="Mozilla/5.0 (Macintosh; Intel Mac OS X 10_15_7) AppleWebKit/537.36 (KHTML, like Gecko) Chrome/131.0.0.0 Safari/537.36" version="24.7.16">
  <diagram name="Page-1" id="mlFHGoiMYeKXE24mpXRK">
    <mxGraphModel dx="1006" dy="629" grid="1" gridSize="10" guides="1" tooltips="1" connect="1" arrows="1" fold="1" page="1" pageScale="1" pageWidth="850" pageHeight="1100" math="1" shadow="0">
      <root>
        <mxCell id="0" />
        <mxCell id="1" parent="0" />
        <mxCell id="eDD5z1zLqEbAjRGTGLcA-6" style="rounded=0;orthogonalLoop=1;jettySize=auto;html=1;entryX=0;entryY=0.5;entryDx=0;entryDy=0;" edge="1" parent="1" source="eDD5z1zLqEbAjRGTGLcA-3" target="eDD5z1zLqEbAjRGTGLcA-5">
          <mxGeometry relative="1" as="geometry" />
        </mxCell>
        <mxCell id="eDD5z1zLqEbAjRGTGLcA-3" value="$$w_1=1$$" style="whiteSpace=wrap;html=1;fillColor=#d5e8d4;strokeColor=#82b366;" vertex="1" parent="1">
          <mxGeometry x="40" y="240" width="80" height="40" as="geometry" />
        </mxCell>
        <mxCell id="eDD5z1zLqEbAjRGTGLcA-7" style="rounded=0;orthogonalLoop=1;jettySize=auto;html=1;exitX=1;exitY=0.5;exitDx=0;exitDy=0;entryX=0;entryY=0.5;entryDx=0;entryDy=0;" edge="1" parent="1" source="eDD5z1zLqEbAjRGTGLcA-4" target="eDD5z1zLqEbAjRGTGLcA-5">
          <mxGeometry relative="1" as="geometry" />
        </mxCell>
        <mxCell id="eDD5z1zLqEbAjRGTGLcA-4" value="$$w_2=2.3$$" style="whiteSpace=wrap;html=1;fillColor=#d5e8d4;strokeColor=#82b366;" vertex="1" parent="1">
          <mxGeometry x="40" y="320" width="80" height="40" as="geometry" />
        </mxCell>
        <mxCell id="eDD5z1zLqEbAjRGTGLcA-9" style="edgeStyle=orthogonalEdgeStyle;rounded=0;orthogonalLoop=1;jettySize=auto;html=1;exitX=1;exitY=0.5;exitDx=0;exitDy=0;" edge="1" parent="1" source="eDD5z1zLqEbAjRGTGLcA-5" target="eDD5z1zLqEbAjRGTGLcA-8">
          <mxGeometry relative="1" as="geometry" />
        </mxCell>
        <mxCell id="eDD5z1zLqEbAjRGTGLcA-5" value="+" style="ellipse;whiteSpace=wrap;html=1;" vertex="1" parent="1">
          <mxGeometry x="160" y="280" width="40" height="40" as="geometry" />
        </mxCell>
        <mxCell id="eDD5z1zLqEbAjRGTGLcA-12" style="rounded=0;orthogonalLoop=1;jettySize=auto;html=1;entryX=0;entryY=0.5;entryDx=0;entryDy=0;exitX=1;exitY=0.5;exitDx=0;exitDy=0;" edge="1" parent="1" source="eDD5z1zLqEbAjRGTGLcA-8" target="eDD5z1zLqEbAjRGTGLcA-10">
          <mxGeometry relative="1" as="geometry" />
        </mxCell>
        <mxCell id="eDD5z1zLqEbAjRGTGLcA-8" value="$$s=3.3$$" style="whiteSpace=wrap;html=1;" vertex="1" parent="1">
          <mxGeometry x="240" y="280" width="80" height="40" as="geometry" />
        </mxCell>
        <mxCell id="eDD5z1zLqEbAjRGTGLcA-15" style="edgeStyle=orthogonalEdgeStyle;rounded=0;orthogonalLoop=1;jettySize=auto;html=1;exitX=1;exitY=0.5;exitDx=0;exitDy=0;entryX=0;entryY=0.5;entryDx=0;entryDy=0;" edge="1" parent="1" source="eDD5z1zLqEbAjRGTGLcA-10" target="eDD5z1zLqEbAjRGTGLcA-14">
          <mxGeometry relative="1" as="geometry" />
        </mxCell>
        <mxCell id="eDD5z1zLqEbAjRGTGLcA-10" value="$$\times$$" style="ellipse;whiteSpace=wrap;html=1;" vertex="1" parent="1">
          <mxGeometry x="360" y="240" width="40" height="40" as="geometry" />
        </mxCell>
        <mxCell id="eDD5z1zLqEbAjRGTGLcA-13" style="rounded=0;orthogonalLoop=1;jettySize=auto;html=1;exitX=1;exitY=0.5;exitDx=0;exitDy=0;" edge="1" parent="1" source="eDD5z1zLqEbAjRGTGLcA-11">
          <mxGeometry relative="1" as="geometry">
            <mxPoint x="360" y="260" as="targetPoint" />
          </mxGeometry>
        </mxCell>
        <mxCell id="eDD5z1zLqEbAjRGTGLcA-11" value="$$w_3=5.7$$" style="whiteSpace=wrap;html=1;fillColor=#d5e8d4;strokeColor=#82b366;" vertex="1" parent="1">
          <mxGeometry x="240" y="200" width="80" height="40" as="geometry" />
        </mxCell>
        <mxCell id="eDD5z1zLqEbAjRGTGLcA-14" value="$$L=18.81$$" style="whiteSpace=wrap;html=1;fillColor=#ffe6cc;strokeColor=#d79b00;" vertex="1" parent="1">
          <mxGeometry x="440" y="240" width="80" height="40" as="geometry" />
        </mxCell>
        <mxCell id="eDD5z1zLqEbAjRGTGLcA-16" value="&lt;font face=&quot;Times New Roman&quot;&gt;intermediate node&lt;br&gt;(for convenience)&lt;/font&gt;" style="text;html=1;align=center;verticalAlign=middle;resizable=0;points=[];autosize=1;strokeColor=none;fillColor=none;" vertex="1" parent="1">
          <mxGeometry x="225" y="320" width="110" height="40" as="geometry" />
        </mxCell>
      </root>
    </mxGraphModel>
  </diagram>
</mxfile>
